<svg width="15" height="15" viewBox="0 0 15 15" fill="none" xmlns="http://www.w3.org/2000/svg">
<path d="M0.266845 12.9082C-0.0884467 13.2635 -0.0884467 13.8395 0.266844 14.1948C0.622136 14.5501 1.19818 14.5501 1.55347 14.1948L0.910156 13.5515L0.266845 12.9082ZM14.4617 0.909791C14.4617 0.407333 14.0543 1.04791e-05 13.5519 1.05212e-05L5.36386 1.1019e-05C4.8614 1.09978e-05 4.45408 0.407333 4.45408 0.909791C4.45408 1.41225 4.8614 1.81957 5.36386 1.81957L12.6421 1.81957L12.6421 9.09781C12.6421 9.60027 13.0494 10.0076 13.5519 10.0076C14.0543 10.0076 14.4617 9.60027 14.4617 9.09781L14.4617 0.909791ZM0.910156 13.5515L1.55347 14.1948L14.1952 1.5531L13.5519 0.909791L12.9086 0.266479L0.266845 12.9082L0.910156 13.5515Z" fill="#272E2F"/>
</svg>
