<svg width="63" height="63" viewBox="0 0 63 63" fill="none" xmlns="http://www.w3.org/2000/svg">
<rect width="62.7692" height="62.7692" rx="13.8462" fill="white"/>
<rect x="0.461538" y="0.461538" width="61.8462" height="61.8462" rx="13.3846" stroke="#020D0A" stroke-opacity="0.2" stroke-width="0.923077"/>
<path d="M39.2554 38.1538L45.6791 44.5773C46.0044 44.9028 46.0044 45.4305 45.6791 45.756C45.3536 46.0813 44.8259 46.0813 44.5004 45.756L38.0769 39.3323C35.7264 41.4075 32.6384 42.6667 29.2564 42.6667C21.8926 42.6667 15.9231 36.6972 15.9231 29.3333C15.9231 21.9695 21.8926 16 29.2564 16C36.6203 16 42.5898 21.9695 42.5898 29.3333C42.5898 32.7153 41.3306 35.8033 39.2554 38.1538ZM29.2564 41C35.6998 41 40.9231 35.7767 40.9231 29.3333C40.9231 22.89 35.6998 17.6667 29.2564 17.6667C22.8131 17.6667 17.5898 22.89 17.5898 29.3333C17.5898 35.7767 22.8131 41 29.2564 41Z" fill="#18288D"/>
</svg>
