<svg width="63" height="63" viewBox="0 0 63 63" fill="none" xmlns="http://www.w3.org/2000/svg">
<rect width="62.7692" height="62.7692" rx="13.8462" fill="white"/>
<rect x="0.461538" y="0.461538" width="61.8462" height="61.8462" rx="13.3846" stroke="#020D0A" stroke-opacity="0.2" stroke-width="0.923077"/>
<g clip-path="url(#clip0_91_643)">
<path d="M51 49.6665H11V50.9998H51V49.6665Z" fill="#18288D"/>
<path d="M13.6667 48.3333H20.3333C20.7015 48.3333 21 48.0348 21 47.6667V35.6667C21 35.2985 20.7015 35 20.3333 35H13.6667C13.2985 35 13 35.2985 13 35.6667V47.6667C13 48.0348 13.2985 48.3333 13.6667 48.3333ZM14.3333 36.3333H19.6667V47H14.3333V36.3333Z" fill="#18288D"/>
<path d="M32.3334 48.3333H39.0001C39.3682 48.3333 39.6667 48.0348 39.6667 47.6667V27.6667C39.6667 27.2985 39.3682 27 39.0001 27H32.3334C31.9652 27 31.6667 27.2985 31.6667 27.6667V47.6667C31.6667 48.0348 31.9652 48.3333 32.3334 48.3333ZM33.0001 28.3333H38.3334V47H33.0001V28.3333Z" fill="#18288D"/>
<path d="M22.9999 48.3333H29.6666C30.0348 48.3333 30.3333 48.0348 30.3333 47.6667V19.6667C30.3333 19.2985 30.0348 19 29.6666 19H22.9999C22.6318 19 22.3333 19.2985 22.3333 19.6667V47.6667C22.3333 48.0348 22.6318 48.3333 22.9999 48.3333ZM23.6666 20.3333H28.9999V47H23.6666V20.3333Z" fill="#18288D"/>
<path d="M41.6667 48.3333H48.3333C48.7015 48.3333 49 48.0348 49 47.6667V11.6667C49 11.2985 48.7015 11 48.3333 11H41.6667C41.2985 11 41 11.2985 41 11.6667V47.6667C41 48.0348 41.2985 48.3333 41.6667 48.3333ZM42.3333 12.3333H47.6667V47H42.3333V12.3333Z" fill="#18288D"/>
</g>
<defs>
<clipPath id="clip0_91_643">
<rect width="40" height="40" fill="white" transform="translate(11 11)"/>
</clipPath>
</defs>
</svg>
