<svg width="63" height="63" viewBox="0 0 63 63" fill="none" xmlns="http://www.w3.org/2000/svg">
<rect width="62.7692" height="62.7692" rx="13.8462" fill="white"/>
<rect x="0.461538" y="0.461538" width="61.8462" height="61.8462" rx="13.3846" stroke="#020D0A" stroke-opacity="0.2" stroke-width="0.923077"/>
<g clip-path="url(#clip0_91_615)">
<path d="M45.7985 15.6763H13.7317C12.6496 15.6763 11.7693 16.5566 11.7693 17.6387V39.0166C11.7693 40.0987 12.6496 40.979 13.7317 40.979H25.0473L24.5358 45.0709H23.7526C23.4067 45.0709 23.1262 45.3513 23.1262 45.6972C23.1262 46.0431 23.4066 46.3235 23.7526 46.3235H27.0929C27.4387 46.3235 27.7192 46.0431 27.7192 45.6972C27.7192 45.3513 27.4388 45.0709 27.0929 45.0709H25.7982L26.3097 40.979H27.0929C27.4387 40.979 27.7192 40.6986 27.7192 40.3527C27.7192 40.0068 27.4388 39.7263 27.0929 39.7263H13.7317C13.3403 39.7263 13.0219 39.4079 13.0219 39.0165V36.9706H27.0929C27.4387 36.9706 27.7192 36.6902 27.7192 36.3442C27.7192 35.9983 27.4388 35.7179 27.0929 35.7179H13.0219V17.6387C13.0219 17.2473 13.3403 16.9288 13.7317 16.9288H45.7985C46.1899 16.9288 46.5084 17.2473 46.5084 17.6387V30.9999C46.5084 31.3457 46.7887 31.6262 47.1347 31.6262C47.4805 31.6262 47.761 31.3458 47.761 30.9999V17.6387C47.7609 16.5566 46.8806 15.6763 45.7985 15.6763Z" fill="#18288D"/>
<path d="M40.4542 27.7017H31.1013C30.0192 27.7017 29.1389 28.582 29.1389 29.6641V44.3613C29.1389 45.4435 30.0192 46.3238 31.1013 46.3238H40.4542C41.5363 46.3238 42.4166 45.4435 42.4166 44.3613V29.6641C42.4166 28.582 41.5363 27.7017 40.4542 27.7017ZM41.164 44.3613C41.164 44.7528 40.8456 45.0712 40.4542 45.0712H31.1013C30.7099 45.0712 30.3915 44.7528 30.3915 44.3613V43.6515H41.1639V44.3613H41.164ZM41.164 42.3989H30.3915V31.6265H41.1639V42.3989H41.164ZM41.164 30.3738H30.3915V29.664C30.3915 29.2726 30.7099 28.9542 31.1013 28.9542H40.4542C40.8456 28.9542 41.164 29.2726 41.164 29.664V30.3738Z" fill="#18288D"/>
<path d="M49.807 33.0459H45.7986C44.7165 33.0459 43.8362 33.9262 43.8362 35.0083V44.3611C43.8362 45.4432 44.7165 46.3236 45.7986 46.3236H49.807C50.8891 46.3236 51.7694 45.4432 51.7694 44.3611V35.0083C51.7694 33.9262 50.8891 33.0459 49.807 33.0459ZM50.5168 44.3611C50.5168 44.7525 50.1984 45.071 49.807 45.071H45.7986C45.4072 45.071 45.0888 44.7525 45.0888 44.3611V43.6513H50.5167V44.3611H50.5168ZM50.5168 42.3987H45.0888V36.9707H50.5168V42.3987ZM50.5168 35.7182H45.0888V35.0083C45.0888 34.6169 45.4073 34.2985 45.7987 34.2985H49.807C50.1984 34.2985 50.5169 34.6169 50.5169 35.0083L50.5168 35.7182Z" fill="#18288D"/>
</g>
<defs>
<clipPath id="clip0_91_615">
<rect width="40" height="40" fill="white" transform="translate(11.7693 11)"/>
</clipPath>
</defs>
</svg>
