<svg width="63" height="63" viewBox="0 0 63 63" fill="none" xmlns="http://www.w3.org/2000/svg">
<rect width="62.7692" height="62.7692" rx="13.8462" fill="white"/>
<rect x="0.461538" y="0.461538" width="61.8462" height="61.8462" rx="13.3846" stroke="#020D0A" stroke-opacity="0.2" stroke-width="0.923077"/>
<path d="M51.4207 47.343H48.2249V26.7712C48.2249 26.5362 48.0344 26.3457 47.7994 26.3457H41.9271C41.6921 26.3457 41.5016 26.5362 41.5016 26.7712V47.3429H39.547V32.2088C39.547 31.9737 39.3565 31.7832 39.1215 31.7832H33.2492C33.0142 31.7832 32.8237 31.9737 32.8237 32.2088V47.3429H30.8691V37.3257C30.8691 37.0907 30.6786 36.9002 30.4435 36.9002H24.5712C24.3362 36.9002 24.1457 37.0907 24.1457 37.3257V47.343H22.1909V41.57C22.1909 41.335 22.0004 41.1444 21.7654 41.1444H15.893C15.6579 41.1444 15.4674 41.335 15.4674 41.57V47.343H12.2717C12.0367 47.343 11.8462 47.5335 11.8462 47.7685C11.8462 48.0035 12.0367 48.194 12.2717 48.194H15.893H21.7653H24.571H30.4433H33.249H39.1213H41.927H47.7993H51.4206C51.6556 48.194 51.8461 48.0035 51.8461 47.7685C51.8461 47.5335 51.6557 47.343 51.4207 47.343ZM21.3398 47.343H16.3185V41.9955H21.3397L21.3398 47.343ZM30.0178 47.343H24.9966V37.7512H30.0178V47.343ZM38.6959 47.343H33.6746V32.6344H38.6959V47.343ZM47.3739 47.343H42.3526V27.1968H47.3739V47.343Z" fill="#18288D"/>
<path d="M44.4049 14.1805C44.4028 14.163 44.3993 14.146 44.3952 14.1291C44.3945 14.1264 44.3935 14.1238 44.3928 14.1212C44.3865 14.0977 44.3785 14.0749 44.3685 14.0531C44.3678 14.0516 44.3673 14.05 44.3667 14.0486C44.3562 14.0266 44.3434 14.0058 44.3293 13.9859C44.3269 13.9824 44.3246 13.9789 44.3221 13.9755C44.3077 13.9565 44.2916 13.9389 44.2743 13.9224C44.2709 13.9192 44.2675 13.916 44.264 13.9129C44.2486 13.8993 44.2325 13.8864 44.215 13.875C44.2116 13.8727 44.2079 13.8709 44.2042 13.8688C44.2027 13.8678 44.2016 13.8665 44.1999 13.8656C44.1979 13.8644 44.1957 13.8638 44.1936 13.8626C44.1717 13.85 44.1489 13.8392 44.1254 13.8308C44.1218 13.8295 44.1182 13.8286 44.1144 13.8274C44.0907 13.8196 44.0665 13.8134 44.0419 13.8099C44.04 13.8096 44.0381 13.8096 44.0363 13.8094C44.0126 13.8064 43.9887 13.8056 43.9647 13.8065C43.9617 13.8066 43.9587 13.8065 43.9557 13.8067C43.9318 13.8082 43.908 13.8121 43.8844 13.8177C43.8805 13.8186 43.8765 13.8195 43.8726 13.8205C43.8681 13.8217 43.8634 13.8225 43.8589 13.8238L36.7469 15.977C36.522 16.0451 36.3948 16.2827 36.4629 16.5076C36.531 16.7325 36.7683 16.8595 36.9935 16.7916L43.0326 14.9632C40.8261 18.4654 38.0797 21.7467 34.8534 24.7286C32.0363 27.3324 28.8501 29.7156 25.3834 31.8121C20.6543 34.6721 16.3194 36.404 14.6879 36.9203C14.464 36.9911 14.3397 37.2303 14.4105 37.4543C14.4679 37.6357 14.6355 37.7516 14.8161 37.7516C14.8585 37.7516 14.9018 37.7452 14.9445 37.7317C14.9924 37.7166 19.809 36.1747 25.8021 32.5534C29.3214 30.427 32.5572 28.0083 35.4195 25.3643C38.6823 22.3504 41.4636 19.0337 43.7044 15.4927C44.0035 18.0008 44.3539 20.9743 44.3682 21.2057C44.3738 21.4357 44.5621 21.6205 44.7936 21.6205C45.0286 21.6205 45.2191 21.43 45.2191 21.195C45.2193 20.9953 44.6497 16.223 44.4049 14.1805Z" fill="#18288D"/>
</svg>
