<svg width="49" height="49" viewBox="0 0 49 49" fill="none" xmlns="http://www.w3.org/2000/svg">
<circle cx="24.0792" cy="24.0792" r="24.0792" fill="#D11F2A"/>
<path d="M32.6255 29.2122L29.7505 27.2034C29.3746 26.9416 28.9352 26.8031 28.4795 26.8031C27.7547 26.8031 27.0745 27.1585 26.6602 27.7531L25.9928 28.7095C24.8743 27.9594 23.626 26.9119 22.4366 25.7226C21.247 24.533 20.1996 23.2849 19.4499 22.1664L20.4057 21.4992C21.4091 20.8004 21.6559 19.414 20.9554 18.4082L18.947 15.5337C18.5268 14.9328 17.849 14.5742 17.134 14.5742C16.8863 14.5742 16.6432 14.6178 16.4116 14.7034C16.1489 14.8007 15.9043 14.9196 15.6642 15.0702L15.2672 15.3497C15.168 15.4271 15.0757 15.5114 14.9873 15.5998C14.503 16.0841 14.1591 16.6968 13.9654 17.4214C13.1379 20.5237 15.1879 25.214 19.0666 29.0926C22.3237 32.3498 26.2368 34.3734 29.2786 34.3736H29.2793C29.7997 34.3736 30.2903 34.3129 30.738 34.1938C31.4626 34.0001 32.0753 33.6562 32.559 33.1723C32.6476 33.0841 32.7321 32.9916 32.8222 32.8748L33.1022 32.4753C33.2394 32.2555 33.3583 32.0107 33.4558 31.7476C33.7943 30.8332 33.453 29.7906 32.6255 29.2122ZM32.6233 31.4395C32.5471 31.6462 32.4548 31.8363 32.3627 31.9849L32.1087 32.3474C32.0543 32.4174 31.9945 32.4818 31.9317 32.5444C31.5594 32.9171 31.0805 33.1834 30.5089 33.3361C30.1362 33.4356 29.7226 33.4861 29.2793 33.4861C29.279 33.4861 29.2788 33.4861 29.2786 33.4861C26.4635 33.4859 22.7909 31.5619 19.6941 28.4651C16.0891 24.8602 14.0861 20.413 14.823 17.6505C14.9758 17.0789 15.2421 16.6 15.6148 16.2273C15.6772 16.1649 15.7418 16.1049 15.7947 16.0633L16.1543 15.8097C16.3234 15.7042 16.5134 15.6121 16.7197 15.5359C16.8523 15.4867 16.9918 15.4618 17.134 15.4618C17.5595 15.4618 17.9654 15.6789 18.2196 16.0422L20.2273 18.9159C20.6479 19.5196 20.5004 20.3516 19.8982 20.7711L18.5899 21.6842C18.3957 21.8197 18.3422 22.0838 18.4681 22.2842C19.2601 23.5438 20.4466 24.9878 21.8091 26.3501C23.1712 27.7124 24.6149 28.8989 25.875 29.6913C26.0756 29.8172 26.3395 29.7635 26.4752 29.5695L27.3885 28.2606C27.7933 27.6792 28.6582 27.5238 29.2429 27.9314L32.1172 29.9399C32.6136 30.2868 32.8218 30.9034 32.6233 31.4395Z" fill="white"/>
<path d="M31.1464 17.0134C29.2337 15.1005 26.6946 13.9542 23.9969 13.7857C23.7538 13.7694 23.5417 13.9564 23.5263 14.2008C23.5109 14.4455 23.6968 14.6561 23.9414 14.6715C26.4231 14.8266 28.759 15.8812 30.5189 17.6409C32.2783 19.4003 33.3327 21.736 33.4881 24.2176C33.5028 24.4527 33.698 24.6337 33.9305 24.6337C33.9398 24.6337 33.9492 24.6334 33.9587 24.6328C34.2033 24.6174 34.3892 24.4068 34.3739 24.1622C34.2051 21.4647 33.0588 18.9258 31.1464 17.0134Z" fill="white"/>
<path d="M23.7749 17.3289C25.6092 17.4437 27.3355 18.2231 28.636 19.5237C29.9363 20.8242 30.7157 22.5503 30.8306 24.3841C30.8453 24.6192 31.0405 24.8001 31.273 24.8001C31.2824 24.8001 31.2917 24.7999 31.3012 24.7993C31.5458 24.7839 31.7318 24.5733 31.7164 24.3286C31.5881 22.2788 30.717 20.3495 29.2635 18.8962C27.81 17.4427 25.8804 16.5714 23.8304 16.4431C23.5849 16.4294 23.3752 16.6138 23.3598 16.8583C23.3444 17.1029 23.5303 17.3135 23.7749 17.3289Z" fill="white"/>
<path d="M23.6087 19.986C24.795 20.0603 25.9118 20.5645 26.7534 21.4059C27.5948 22.2475 28.099 23.364 28.1735 24.5502C28.1883 24.7855 28.3837 24.9662 28.616 24.9662C28.6253 24.9662 28.6349 24.966 28.6442 24.9653C28.8888 24.9499 29.0747 24.7391 29.0593 24.4947C28.9714 23.0925 28.3753 21.7729 27.3809 20.7784C26.3863 19.784 25.0663 19.1879 23.6642 19.1002C23.4163 19.0835 23.2089 19.2709 23.1935 19.5153C23.1781 19.76 23.364 19.9706 23.6087 19.986Z" fill="white"/>
</svg>
