<svg width="49" height="49" viewBox="0 0 49 49" fill="none" xmlns="http://www.w3.org/2000/svg">
<circle cx="24.0792" cy="24.0792" r="24.0792" fill="#D11F2A"/>
<path d="M33.7773 32.1045H14.3819C13.7515 32.1038 13.1471 31.853 12.7013 31.4072C12.2555 30.9614 12.0048 30.3569 12.0042 29.7265V17.7481C12.0048 17.1176 12.2555 16.5132 12.7013 16.0674C13.1471 15.6216 13.7515 15.3708 14.3819 15.3701H33.7773C34.4077 15.3708 35.0121 15.6216 35.4579 16.0674C35.9037 16.5132 36.1544 17.1176 36.155 17.7481V29.7265C36.1544 30.3569 35.9037 30.9614 35.4579 31.4072C35.0121 31.853 34.4077 32.1038 33.7773 32.1045ZM14.3819 16.279C13.9924 16.2794 13.619 16.4343 13.3436 16.7097C13.0682 16.9852 12.9133 17.3586 12.913 17.7481V29.7265C12.9133 30.116 13.0682 30.4894 13.3436 30.7649C13.619 31.0403 13.9924 31.1952 14.3819 31.1956H33.7773C34.1668 31.1952 34.5402 31.0403 34.8156 30.7649C35.091 30.4894 35.2459 30.116 35.2462 29.7265V17.7481C35.2459 17.3586 35.091 16.9852 34.8156 16.7097C34.5402 16.4343 34.1668 16.2794 33.7773 16.279H14.3819Z" fill="white"/>
<path d="M24.0794 26.4117C23.9687 26.4118 23.8617 26.3714 23.7786 26.2981L12.8271 16.6308L13.4286 15.9492L24.0794 25.352L34.7307 15.9504L35.3321 16.632L24.3807 26.2992C24.2974 26.3723 24.1902 26.4123 24.0794 26.4117Z" fill="white"/>
<path d="M12.5798 30.6772L19.9369 22.2946L20.6203 22.8945L13.2633 31.2771L12.5798 30.6772Z" fill="white"/>
<path d="M27.5615 22.8857L28.245 22.2859L35.6022 30.6687L34.9187 31.2685L27.5615 22.8857Z" fill="white"/>
</svg>
