<svg width="49" height="49" viewBox="0 0 49 49" fill="none" xmlns="http://www.w3.org/2000/svg">
<circle cx="24.0792" cy="24.0792" r="24.0792" fill="#D11F2A"/>
<g clip-path="url(#clip0_91_457)">
<path d="M24.0794 9.87891C18.2942 9.87891 13.5879 14.5853 13.5879 20.3704C13.5879 22.2749 14.442 24.3232 14.4778 24.4096C14.7537 25.0644 15.298 26.0815 15.6905 26.6776L22.884 37.577C23.1783 38.0238 23.614 38.28 24.0794 38.28C24.5447 38.28 24.9804 38.0238 25.2748 37.5777L32.4689 26.6776C32.862 26.0815 33.4057 25.0644 33.6815 24.4096C33.7173 24.3238 34.5709 22.2755 34.5709 20.3704C34.5709 14.5853 29.8645 9.87891 24.0794 9.87891ZM32.5435 23.9307C32.2973 24.5176 31.7906 25.4637 31.4382 25.9981L24.2441 36.8982C24.1022 37.1136 24.0572 37.1136 23.9152 36.8982L16.7211 25.9981C16.3687 25.4637 15.8621 24.517 15.6158 23.9301C15.6053 23.9048 14.8222 22.0194 14.8222 20.3704C14.8222 15.266 18.975 11.1132 24.0794 11.1132C29.1838 11.1132 33.3366 15.266 33.3366 20.3704C33.3366 22.0219 32.5515 23.9122 32.5435 23.9307Z" fill="white"/>
<path d="M24.0795 14.8169C21.0166 14.8169 18.5251 17.3089 18.5251 20.3712C18.5251 23.4335 21.0166 25.9255 24.0795 25.9255C27.1424 25.9255 29.6338 23.4335 29.6338 20.3712C29.6338 17.3089 27.1424 14.8169 24.0795 14.8169ZM24.0795 24.6912C21.6979 24.6912 19.7594 22.7534 19.7594 20.3712C19.7594 17.989 21.6979 16.0512 24.0795 16.0512C26.461 16.0512 28.3995 17.989 28.3995 20.3712C28.3995 22.7534 26.461 24.6912 24.0795 24.6912Z" fill="white"/>
</g>
<defs>
<clipPath id="clip0_91_457">
<rect width="28.4011" height="28.4011" fill="white" transform="translate(9.87866 9.87891)"/>
</clipPath>
</defs>
</svg>
