<svg width="22" height="22" viewBox="0 0 22 22" fill="none" xmlns="http://www.w3.org/2000/svg">
<path d="M7.42454 5.61274L15.0259 5.43596C15.2322 5.43597 15.409 5.50962 15.5563 5.65694C15.7036 5.80425 15.7772 5.98103 15.7772 6.18727L15.6005 13.7887C15.5415 14.2601 15.2911 14.5105 14.8492 14.54C14.3778 14.481 14.1273 14.2306 14.0979 13.7887L14.2304 8.04342L6.71743 15.5564C6.36388 15.8511 6.01033 15.8511 5.65677 15.5564C5.36215 15.2029 5.36215 14.8493 5.65677 14.4958L13.1698 6.98276L7.42454 7.11534C6.9826 7.08588 6.73216 6.83545 6.67324 6.36404C6.7027 5.9221 6.95314 5.67167 7.42454 5.61274Z" fill="white"/>
</svg>
