<svg width="26" height="16" viewBox="0 0 26 16" fill="none" xmlns="http://www.w3.org/2000/svg">
<path d="M12.003 4.40625C10.0155 4.40625 8.4124 6.00938 8.4124 7.99688C8.4124 9.98438 10.0155 11.5875 12.003 11.5875C13.9905 11.5875 15.5937 9.98438 15.5937 7.99688C15.5937 6.00938 13.9905 4.40625 12.003 4.40625ZM12.003 10.3313C10.7187 10.3313 9.66865 9.28438 9.66865 7.99688C9.66865 6.70938 10.7155 5.6625 12.003 5.6625C13.2905 5.6625 14.3374 6.70938 14.3374 7.99688C14.3374 9.28438 13.2874 10.3313 12.003 10.3313ZM16.578 4.25938C16.578 4.725 16.203 5.09688 15.7405 5.09688C15.2749 5.09688 14.903 4.72188 14.903 4.25938C14.903 3.79688 15.278 3.42188 15.7405 3.42188C16.203 3.42188 16.578 3.79688 16.578 4.25938ZM18.9562 5.10938C18.903 3.9875 18.6468 2.99375 17.8249 2.175C17.0062 1.35625 16.0124 1.1 14.8905 1.04375C13.7343 0.978125 10.2687 0.978125 9.1124 1.04375C7.99365 1.09688 6.9999 1.35313 6.17803 2.17188C5.35615 2.99063 5.10303 3.98438 5.04678 5.10625C4.98115 6.2625 4.98115 9.72812 5.04678 10.8844C5.0999 12.0062 5.35615 13 6.17803 13.8188C6.9999 14.6375 7.99053 14.8938 9.1124 14.95C10.2687 15.0156 13.7343 15.0156 14.8905 14.95C16.0124 14.8969 17.0062 14.6406 17.8249 13.8188C18.6437 13 18.8999 12.0062 18.9562 10.8844C19.0218 9.72812 19.0218 6.26563 18.9562 5.10938ZM17.4624 12.125C17.2187 12.7375 16.7468 13.2094 16.1312 13.4563C15.2093 13.8219 13.0218 13.7375 12.003 13.7375C10.9843 13.7375 8.79365 13.8188 7.8749 13.4563C7.2624 13.2125 6.79053 12.7406 6.54365 12.125C6.17803 11.2031 6.2624 9.01562 6.2624 7.99688C6.2624 6.97813 6.18115 4.7875 6.54365 3.86875C6.7874 3.25625 7.25928 2.78438 7.8749 2.5375C8.79678 2.17188 10.9843 2.25625 12.003 2.25625C13.0218 2.25625 15.2124 2.175 16.1312 2.5375C16.7437 2.78125 17.2155 3.25313 17.4624 3.86875C17.828 4.79063 17.7437 6.97813 17.7437 7.99688C17.7437 9.01562 17.828 11.2063 17.4624 12.125Z" fill="#272E2F"/>
</svg>
