<svg width="59" height="36" viewBox="0 0 59 36" fill="none" xmlns="http://www.w3.org/2000/svg">
<path d="M18.3009 31.4998H11.7703V10.4693H18.3009V31.4998ZM15.0321 7.60057C12.9438 7.60057 11.25 5.87088 11.25 3.7826C11.25 2.77952 11.6485 1.81753 12.3578 1.10824C13.067 0.398959 14.029 0.000488281 15.0321 0.000488281C16.0352 0.000488281 16.9972 0.398959 17.7065 1.10824C18.4157 1.81753 18.8142 2.77952 18.8142 3.7826C18.8142 5.87088 17.1197 7.60057 15.0321 7.60057ZM42.743 31.4998H36.2264V21.2623C36.2264 18.8224 36.1772 15.6935 32.831 15.6935C29.4356 15.6935 28.9153 18.3443 28.9153 21.0865V31.4998H22.3917V10.4693H28.6552V13.3381H28.7466C29.6184 11.6857 31.7482 9.94197 34.9256 9.94197C41.535 9.94197 42.75 14.2943 42.75 19.9474V31.4998H42.743Z" fill="white"/>
</svg>
