<svg width="59" height="36" viewBox="0 0 59 36" fill="none" xmlns="http://www.w3.org/2000/svg">
<path d="M27.0072 9.91416C22.5353 9.91416 18.9283 13.5212 18.9283 17.9931C18.9283 22.4649 22.5353 26.072 27.0072 26.072C31.4791 26.072 35.0861 22.4649 35.0861 17.9931C35.0861 13.5212 31.4791 9.91416 27.0072 9.91416ZM27.0072 23.2454C24.1173 23.2454 21.7548 20.8899 21.7548 17.9931C21.7548 15.0962 24.1103 12.7407 27.0072 12.7407C29.9041 12.7407 32.2595 15.0962 32.2595 17.9931C32.2595 20.8899 29.897 23.2454 27.0072 23.2454ZM37.3009 9.58369C37.3009 10.6313 36.4572 11.4681 35.4166 11.4681C34.3689 11.4681 33.5322 10.6243 33.5322 9.58369C33.5322 8.54307 34.3759 7.69932 35.4166 7.69932C36.4572 7.69932 37.3009 8.54307 37.3009 9.58369ZM42.6517 11.4962C42.5322 8.97197 41.9556 6.73603 40.1064 4.89385C38.2642 3.05166 36.0283 2.4751 33.5041 2.34854C30.9025 2.20088 23.1048 2.20088 20.5033 2.34854C17.9861 2.46807 15.7501 3.04463 13.9009 4.88682C12.0517 6.729 11.4822 8.96494 11.3556 11.4892C11.208 14.0907 11.208 21.8884 11.3556 24.4899C11.4751 27.0142 12.0517 29.2501 13.9009 31.0923C15.7501 32.9345 17.9791 33.511 20.5033 33.6376C23.1048 33.7853 30.9025 33.7853 33.5041 33.6376C36.0283 33.5181 38.2642 32.9415 40.1064 31.0923C41.9486 29.2501 42.5251 27.0142 42.6517 24.4899C42.7994 21.8884 42.7994 14.0978 42.6517 11.4962ZM39.2908 27.2813C38.7423 28.6595 37.6806 29.7212 36.2955 30.2767C34.2212 31.0993 29.2994 30.9095 27.0072 30.9095C24.715 30.9095 19.7861 31.0923 17.7189 30.2767C16.3408 29.7282 15.2791 28.6665 14.7236 27.2813C13.9009 25.2071 14.0908 20.2853 14.0908 17.9931C14.0908 15.7009 13.908 10.772 14.7236 8.70478C15.272 7.32666 16.3337 6.26494 17.7189 5.70947C19.7931 4.88682 24.715 5.07666 27.0072 5.07666C29.2994 5.07666 34.2283 4.89385 36.2955 5.70947C37.6736 6.25791 38.7353 7.31963 39.2908 8.70478C40.1134 10.779 39.9236 15.7009 39.9236 17.9931C39.9236 20.2853 40.1134 25.2142 39.2908 27.2813Z" fill="white"/>
</svg>
