<svg width="57" height="36" viewBox="0 0 57 36" fill="none" xmlns="http://www.w3.org/2000/svg">
<path d="M43.3535 9.75519C42.9609 8.27706 41.8043 7.11294 40.3357 6.71788C37.6738 6 27 6 27 6C27 6 16.3263 6 13.6643 6.71788C12.1958 7.113 11.0392 8.27706 10.6466 9.75519C9.93335 12.4344 9.93335 18.0243 9.93335 18.0243C9.93335 18.0243 9.93335 23.6141 10.6466 26.2933C11.0392 27.7714 12.1958 28.8871 13.6643 29.2821C16.3263 30 27 30 27 30C27 30 37.6738 30 40.3357 29.2821C41.8043 28.8871 42.9609 27.7714 43.3535 26.2933C44.0667 23.6141 44.0667 18.0243 44.0667 18.0243C44.0667 18.0243 44.0667 12.4344 43.3535 9.75519ZM23.5091 23.0994V12.9491L32.4303 18.0244L23.5091 23.0994Z" fill="white"/>
</svg>
