<svg width="25" height="16" viewBox="0 0 25 16" fill="none" xmlns="http://www.w3.org/2000/svg">
<path d="M8.13375 14H5.23125V4.65313H8.13375V14ZM6.68094 3.37813C5.75281 3.37813 5 2.60938 5 1.68125C5 1.23544 5.1771 0.807885 5.49234 0.492648C5.80757 0.177411 6.23513 0.000312805 6.68094 0.000312805C7.12675 0.000312805 7.5543 0.177411 7.86954 0.492648C8.18478 0.807885 8.36188 1.23544 8.36188 1.68125C8.36188 2.60938 7.60875 3.37813 6.68094 3.37813ZM18.9969 14H16.1006V9.45C16.1006 8.36562 16.0787 6.975 14.5916 6.975C13.0825 6.975 12.8513 8.15312 12.8513 9.37187V14H9.95188V4.65313H12.7356V5.92813H12.7762C13.1637 5.19375 14.1103 4.41875 15.5225 4.41875C18.46 4.41875 19 6.35313 19 8.86563V14H18.9969Z" fill="#272E2F"/>
</svg>
