<svg width="11" height="7" viewBox="0 0 11 7" fill="none" xmlns="http://www.w3.org/2000/svg">
<path d="M5.25 6.125C5.01302 6.125 4.80339 6.04297 4.62109 5.87891L0.246094 1.50391C0.0820312 1.32161 0 1.11198 0 0.875C0 0.638021 0.0820312 0.428385 0.246094 0.246094C0.428385 0.0820312 0.638021 0 0.875 0C1.11198 0 1.32161 0.0820312 1.50391 0.246094L5.25 4.01953L8.99609 0.246094C9.17839 0.0820312 9.38802 0 9.625 0C9.86198 0 10.0716 0.0820312 10.2539 0.246094C10.418 0.428385 10.5 0.638021 10.5 0.875C10.5 1.11198 10.418 1.32161 10.2539 1.50391L5.87891 5.87891C5.69661 6.04297 5.48698 6.125 5.25 6.125Z" fill="white"/>
</svg>
