<svg width="11" height="11" viewBox="0 0 11 11" fill="none" xmlns="http://www.w3.org/2000/svg">
<path d="M1.98851 0.176828L9.5899 5.17219e-05C9.79614 5.20591e-05 9.97292 0.0737086 10.1202 0.221023C10.2675 0.368337 10.3412 0.545113 10.3412 0.751353L10.1644 8.35275C10.1055 8.82416 9.85507 9.07459 9.41313 9.10405C8.94172 9.04513 8.69129 8.79469 8.66183 8.35275L8.79441 2.60751L1.2814 10.1205C0.927845 10.4151 0.574291 10.4151 0.220738 10.1205C-0.07389 9.76696 -0.07389 9.41341 0.220738 9.05986L7.73375 1.54685L1.98851 1.67943C1.54656 1.64997 1.29613 1.39953 1.2372 0.928129C1.26667 0.486187 1.5171 0.235754 1.98851 0.176828Z" fill="#43AFC9"/>
</svg>
