<svg width="16" height="16" viewBox="0 0 16 16" fill="none" xmlns="http://www.w3.org/2000/svg">
<path d="M15.2682 4.33564C15.0937 3.67869 14.5797 3.1613 13.927 2.98572C12.7439 2.66667 7.99999 2.66667 7.99999 2.66667C7.99999 2.66667 3.2561 2.66667 2.07302 2.98572C1.42032 3.16133 0.906267 3.67869 0.731795 4.33564C0.414795 5.52639 0.414795 8.01078 0.414795 8.01078C0.414795 8.01078 0.414795 10.4952 0.731795 11.6859C0.906267 12.3429 1.42032 12.8387 2.07302 13.0143C3.2561 13.3333 7.99999 13.3333 7.99999 13.3333C7.99999 13.3333 12.7439 13.3333 13.927 13.0143C14.5797 12.8387 15.0937 12.3429 15.2682 11.6859C15.5852 10.4952 15.5852 8.01078 15.5852 8.01078C15.5852 8.01078 15.5852 5.52639 15.2682 4.33564ZM6.44846 10.2664V5.75514L10.4134 8.01083L6.44846 10.2664Z" fill="#272E2F"/>
</svg>
